<svg width="196" height="202" viewBox="0 0 196 202" fill="none" xmlns="http://www.w3.org/2000/svg">
<path d="M101.315 23.2562C101.249 23.2562 101.183 23.2538 101.117 23.2538C58.2039 23.2538 23.4158 58.0419 23.4158 100.955C23.4158 143.869 58.2039 178.657 101.117 178.657C101.183 178.657 101.249 178.655 101.315 178.655V23.2562Z" fill="#FDB441"/>
<path d="M101.315 63.3426C99.679 63.3426 98.3527 62.0167 98.3527 60.3804V3.00562C98.3527 1.36932 99.679 0.043457 101.315 0.043457C102.951 0.043457 104.277 1.36932 104.277 3.00562V60.3808C104.277 62.0167 102.951 63.3426 101.315 63.3426Z" fill="#FEC165"/>
<path d="M101.315 202C99.679 202 98.3527 200.674 98.3527 199.038V161.762C98.3527 160.126 99.679 158.8 101.315 158.8C102.951 158.8 104.277 160.126 104.277 161.762V199.038C104.277 200.674 102.951 202 101.315 202Z" fill="#FEC165"/>
<path d="M101.316 40.28C67.5509 40.28 40.1805 67.6504 40.1805 101.415C40.1805 134.187 65.9648 160.933 98.3535 162.478L98.4265 162.307L99.2022 162.427L99.5383 162.523C100.129 162.54 100.721 162.551 101.316 162.551L121.598 136.503V61.5507L101.316 40.28Z" fill="#FEDF30"/>
<path d="M62.2293 101.915C62.2293 75.1143 78.1274 51.8719 101.386 40.3558L101.319 40.28C67.5545 40.28 40.1797 67.652 40.1797 101.417C40.1797 134.587 66.5991 161.582 99.5415 162.523C77.2941 150.71 62.2293 128 62.2293 101.915V101.915Z" fill="#FED402"/>
<path d="M101.319 40.28C135.084 40.28 162.45 67.652 162.45 101.417C162.45 135.181 135.08 162.552 101.315 162.552L101.319 40.28Z" fill="#DAD2CE"/>
<path d="M12.2753 104.379H3.69489C2.05899 104.379 0.732727 103.053 0.732727 101.417C0.732727 99.7804 2.05899 98.4545 3.69489 98.4545H12.2757C13.9116 98.4545 15.2379 99.7804 15.2379 101.417C15.2375 103.053 13.9112 104.379 12.2753 104.379Z" fill="#FEDBA6"/>
<path d="M65.7219 24.821C64.5895 24.821 63.5085 24.1685 63.016 23.0678L58.4207 12.797C57.7529 11.304 58.4215 9.55161 59.9148 8.88374C61.409 8.21587 63.1606 8.88453 63.8285 10.3779L68.4238 20.6487C69.0916 22.1416 68.423 23.894 66.9297 24.5619C66.5371 24.7376 66.1259 24.821 65.7219 24.821V24.821Z" fill="#FEDBA6"/>
<path d="M19.9268 66.3296C19.5066 66.3296 19.08 66.2396 18.674 66.05L10.9119 62.4212C9.43006 61.7284 8.79023 59.9653 9.48338 58.4831C10.1761 57.0012 11.9396 56.3617 13.4211 57.0545L21.1831 60.6833C22.665 61.3761 23.3048 63.1392 22.6121 64.6215C22.1089 65.6973 21.0414 66.3296 19.9268 66.3296Z" fill="#FEDBA6"/>
<path d="M37.5286 39.3147C37.1195 39.2187 36.7248 39.0335 36.3729 38.7562L29.6456 33.4494C28.3612 32.4363 28.1413 30.5737 29.1548 29.289C30.1679 28.0047 32.0309 27.7852 33.3148 28.7982L40.0421 34.105C41.3264 35.1181 41.5464 36.9807 40.5332 38.2654C39.7975 39.1978 38.6137 39.5694 37.5286 39.3147Z" fill="#FEDBA6"/>
<path d="M61.123 194.209C60.719 194.209 60.3082 194.125 59.9148 193.95C58.4215 193.282 57.7524 191.529 58.4207 190.036L63.016 179.766C63.6839 178.272 65.4355 177.603 66.9296 178.271C68.423 178.939 69.092 180.692 68.4237 182.185L63.8284 192.456C63.3367 193.556 62.2553 194.209 61.123 194.209Z" fill="#FEDBA6"/>
<path d="M32.7969 175.27C32.4153 175.137 32.0547 174.924 31.741 174.628C30.55 173.507 30.494 171.632 31.6158 170.442L39.331 162.251C40.4525 161.06 42.3269 161.004 43.5183 162.126C44.7092 163.248 44.7652 165.123 43.6435 166.313L35.9282 174.503C35.1022 175.381 33.8663 175.642 32.7969 175.27Z" fill="#FEDBA6"/>
<path d="M12.1687 146.059C11.0541 146.059 9.98656 145.426 9.48339 144.35C8.79064 142.868 9.43007 141.105 10.9119 140.412L18.674 136.783C20.1567 136.09 21.9194 136.731 22.6121 138.212C23.3049 139.694 22.6654 141.457 21.1832 142.15L13.4211 145.779C13.0155 145.969 12.5885 146.059 12.1687 146.059V146.059Z" fill="#FEDBA6"/>
<path d="M160.933 26.0352C158.953 24.6568 157.277 23.0023 155.922 21.0575C154.975 19.6993 152.988 19.6337 151.986 20.9517C150.619 22.7515 148.947 24.3728 147.001 25.8329C145.637 26.8559 145.67 28.8938 147.083 29.8481C149.022 31.1581 150.69 32.7774 152.055 34.7416C153.007 36.1128 155.03 36.1128 156.013 34.7637C157.338 32.9461 159.006 31.3915 160.94 30.0396C162.336 29.0637 162.33 27.0083 160.933 26.0352V26.0352Z" fill="#FEE97D"/>
<path d="M184.32 90.5124C182.684 90.5124 181.357 89.1865 181.357 87.5502V71.579C181.357 69.9427 182.684 68.6168 184.32 68.6168C185.955 68.6168 187.282 69.9427 187.282 71.579V87.5502C187.282 89.1865 185.955 90.5124 184.32 90.5124Z" fill="#FEF48B"/>
<path d="M192.305 82.5272H176.334C174.698 82.5272 173.372 81.2013 173.372 79.565C173.372 77.9287 174.698 76.6028 176.334 76.6028H192.305C193.941 76.6028 195.267 77.9287 195.267 79.565C195.267 81.2013 193.941 82.5272 192.305 82.5272Z" fill="#FEF48B"/>
<path d="M155.012 160.144L155.929 163.082C156.141 163.764 156.752 164.226 157.441 164.226H160.407C161.947 164.226 162.587 166.278 161.342 167.221L158.942 169.036C158.385 169.458 158.151 170.205 158.364 170.887L159.281 173.825C159.757 175.35 158.08 176.619 156.835 175.676L154.435 173.861C153.877 173.439 153.123 173.439 152.566 173.861L150.166 175.676C148.92 176.619 147.243 175.351 147.719 173.825L148.636 170.887C148.849 170.205 148.616 169.458 148.058 169.036L145.658 167.221C144.412 166.278 145.053 164.226 146.593 164.226H149.559C150.248 164.226 150.859 163.764 151.072 163.082L151.988 160.144C152.464 158.619 154.536 158.619 155.012 160.144V160.144Z" fill="#FEE97D"/>
<path d="M139.377 134.08C143.492 134.08 147.11 136.208 149.199 139.419C144.365 145.513 138.385 150.66 131.588 154.538C129.179 152.394 127.662 149.27 127.662 145.794C127.662 139.325 132.907 134.08 139.377 134.08V134.08Z" fill="#B6B1AF"/>
<path d="M106.501 124.352C111.126 124.352 114.874 128.1 114.874 132.725C114.874 137.35 111.126 141.094 106.501 141.094C104.542 141.094 102.741 140.415 101.315 139.289V126.161C102.741 125.031 104.542 124.352 106.501 124.352Z" fill="#B6B1AF"/>
<path d="M156.486 75.0534C154.274 76.2817 151.727 76.9848 149.018 76.9848C140.494 76.9848 133.587 70.073 133.587 61.5538C133.587 57.8571 134.886 54.4683 137.05 51.8142C145.325 57.7781 152.043 65.768 156.486 75.0534V75.0534Z" fill="#B6B1AF"/>
<path d="M133.587 94.5089C138.8 94.5089 143.03 98.7389 143.03 103.952C143.03 109.166 138.8 113.392 133.587 113.392C128.373 113.392 124.147 109.166 124.147 103.952C124.147 98.7389 128.373 94.5089 133.587 94.5089Z" fill="#B6B1AF"/>
<path d="M107.638 58.5482C114.179 58.5482 119.479 63.8485 119.479 70.385C119.479 76.9255 114.179 82.2258 107.638 82.2258C105.312 82.2258 103.144 81.5504 101.315 80.3932V60.3808C103.144 59.2196 105.312 58.5482 107.638 58.5482Z" fill="#B6B1AF"/>
</svg>
